<?xml version="1.0" encoding="UTF-8"?> <svg xmlns="http://www.w3.org/2000/svg" width="26" height="14" viewBox="0 0 26 14" fill="none"><path d="M18.9633 0.101807H17.8142C17.6618 0.101807 17.5157 0.162342 17.4079 0.270096C17.3001 0.37785 17.2396 0.523997 17.2396 0.676385V5.84759H8.04636V0.676385C8.04636 0.523997 7.98582 0.37785 7.87807 0.270096C7.77031 0.162342 7.62417 0.101807 7.47178 0.101807H6.32262C6.17024 0.101807 6.02409 0.162342 5.91634 0.270096C5.80858 0.37785 5.74805 0.523997 5.74805 0.676385V13.3171C5.74805 13.4695 5.80858 13.6156 5.91634 13.7234C6.02409 13.8311 6.17024 13.8917 6.32262 13.8917H7.47178C7.62417 13.8917 7.77031 13.8311 7.87807 13.7234C7.98582 13.6156 8.04636 13.4695 8.04636 13.3171V8.1459H17.2396V13.3171C17.2396 13.4695 17.3001 13.6156 17.4079 13.7234C17.5157 13.8311 17.6618 13.8917 17.8142 13.8917H18.9633C19.1157 13.8917 19.2619 13.8311 19.3696 13.7234C19.4774 13.6156 19.5379 13.4695 19.5379 13.3171V0.676385C19.5379 0.523997 19.4774 0.37785 19.3696 0.270096C19.2619 0.162342 19.1157 0.101807 18.9633 0.101807Z" fill="currentColor"></path><path d="M4.02205 2.40048H2.87289C2.7205 2.40048 2.57436 2.46102 2.4666 2.56877C2.35885 2.67653 2.29831 2.82267 2.29831 2.97506V5.84795H0.574578C0.42219 5.84795 0.276044 5.90849 0.16829 6.01624C0.0605353 6.12399 0 6.27014 0 6.42253V7.57168C0 7.72407 0.0605353 7.87022 0.16829 7.97797C0.276044 8.08573 0.42219 8.14626 0.574578 8.14626H2.29831V11.0192C2.29831 11.1715 2.35885 11.3177 2.4666 11.4254C2.57436 11.5332 2.7205 11.5937 2.87289 11.5937H4.02205C4.17443 11.5937 4.32058 11.5332 4.42833 11.4254C4.53609 11.3177 4.59662 11.1715 4.59662 11.0192V2.97506C4.59662 2.82267 4.53609 2.67653 4.42833 2.56877C4.32058 2.46102 4.17443 2.40048 4.02205 2.40048Z" fill="currentColor"></path><path d="M24.7076 5.84795H22.9839V2.97506C22.9839 2.82267 22.9233 2.67653 22.8156 2.56877C22.7078 2.46102 22.5617 2.40048 22.4093 2.40048H21.2601C21.1077 2.40048 20.9616 2.46102 20.8538 2.56877C20.7461 2.67653 20.6855 2.82267 20.6855 2.97506V11.0192C20.6855 11.1715 20.7461 11.3177 20.8538 11.4254C20.9616 11.5332 21.1077 11.5937 21.2601 11.5937H22.4093C22.5617 11.5937 22.7078 11.5332 22.8156 11.4254C22.9233 11.3177 22.9839 11.1715 22.9839 11.0192V8.14626H24.7076C24.86 8.14626 25.0061 8.08573 25.1139 7.97797C25.2216 7.87022 25.2822 7.72407 25.2822 7.57168V6.42253C25.2822 6.27014 25.2216 6.12399 25.1139 6.01624C25.0061 5.90849 24.86 5.84795 24.7076 5.84795Z" fill="currentColor"></path></svg> 