<?xml version="1.0" encoding="UTF-8"?> <svg xmlns="http://www.w3.org/2000/svg" width="26" height="18" viewBox="0 0 26 18" fill="none"><path d="M25.9299 15.9824L19.4299 1.35742C19.3661 1.21383 19.262 1.09183 19.1302 1.0062C18.9984 0.920576 18.8446 0.875002 18.6875 0.875H7.31249C7.15534 0.875002 7.00157 0.920576 6.8698 1.0062C6.73802 1.09183 6.63391 1.21383 6.57007 1.35742V1.36961L0.0700686 15.9824C0.0150709 16.1061 -0.00814501 16.2416 0.0025302 16.3766C0.0132054 16.5115 0.0574334 16.6417 0.131196 16.7552C0.204958 16.8687 0.305916 16.962 0.424897 17.0266C0.543879 17.0912 0.677112 17.125 0.812491 17.125H25.1875C25.3229 17.125 25.4561 17.0912 25.5751 17.0266C25.6941 16.962 25.795 16.8687 25.8688 16.7552C25.9425 16.6417 25.9868 16.5115 25.9975 16.3766C26.0081 16.2416 25.9849 16.1061 25.9299 15.9824ZM6.49999 15.5H2.06272L6.49999 5.51641V15.5ZM8.12499 15.5V5.51641L12.5623 15.5H8.12499Z" fill="black"></path></svg> 